<svg width="150" height="150" viewBox="0 0 150 150" fill="none" xmlns="http://www.w3.org/2000/svg">
<mask id="mask0_2632_612" style="mask-type:alpha" maskUnits="userSpaceOnUse" x="0" y="0" width="150" height="150">
<circle cx="75" cy="75" r="70" stroke="white" stroke-width="10"/>
<path fill-rule="evenodd" clip-rule="evenodd" d="M45 119C44.4477 119 44 119.448 44 120L43 120C42.4477 120 42 120.448 42 121V122H41C40.4477 122 40 122.448 40 123V125C38.3431 125 37 126.343 37 128V137C37 138.657 38.3431 140 40 140H110C111.657 140 113 138.657 113 137V128C113 126.343 111.657 125 110 125V123C110 122.448 109.552 122 109 122H108V121C108 120.448 107.552 120 107 120H106C106 119.448 105.552 119 105 119H45ZM42 124.5C41.7239 124.5 41.5 124.724 41.5 125C41.5 125.276 41.7239 125.5 42 125.5L108 125.5C108.276 125.5 108.5 125.276 108.5 125C108.5 124.724 108.276 124.5 108 124.5L42 124.5ZM43.75 122C43.75 121.862 43.8619 121.75 44 121.75L106 121.75C106.138 121.75 106.25 121.862 106.25 122C106.25 122.138 106.138 122.25 106 122.25L44 122.25C43.8619 122.25 43.75 122.138 43.75 122ZM46 119.875C45.931 119.875 45.875 119.931 45.875 120C45.875 120.069 45.931 120.125 46 120.125L104 120.125C104.069 120.125 104.125 120.069 104.125 120C104.125 119.931 104.069 119.875 104 119.875L46 119.875Z" fill="white"/>
<path fill-rule="evenodd" clip-rule="evenodd" d="M73.483 36.9512C74.2641 35.6829 76.1078 35.6829 76.8889 36.9512L81.3299 44.1624C81.6154 44.626 82.0789 44.9501 82.6076 45.08C93.7665 47.8216 102.55 56.6054 105.292 67.7644C105.422 68.2931 105.746 68.7566 106.21 69.0421L113.421 73.483C114.689 74.2641 114.689 76.1078 113.421 76.8889L106.21 81.3299C105.746 81.6154 105.422 82.0789 105.292 82.6076C102.495 93.99 93.4123 102.901 81.9344 105.449C81.3871 105.571 80.9049 105.9 80.6109 106.377L76.8889 112.421C76.1078 113.689 74.2641 113.689 73.483 112.421L69.7611 106.377C69.4671 105.9 68.9848 105.571 68.4375 105.449C56.9596 102.901 47.8765 93.99 45.08 82.6076C44.9501 82.0789 44.626 81.6154 44.1624 81.3299L36.9512 76.8889C35.6829 76.1078 35.6829 74.2641 36.9512 73.483L44.1624 69.0421C44.626 68.7566 44.9501 68.2931 45.08 67.7644C47.8216 56.6054 56.6054 47.8216 67.7644 45.08C68.2931 44.9501 68.7566 44.626 69.0421 44.1624L73.483 36.9512ZM96.7057 78.0323C96.2093 78.338 95.8763 78.8464 95.7594 79.4176C94.0546 87.7503 87.4144 94.2855 79.0264 95.8356C78.4392 95.9441 77.914 96.2805 77.6009 96.7889L77.2043 97.4329C76.4232 98.7012 74.5794 98.7012 73.7983 97.4329L73.4741 96.9064C73.149 96.3784 72.5961 96.0371 71.9832 95.9433C63.1616 94.5934 56.1471 87.7542 54.5354 79.0215C54.427 78.4342 54.0906 77.9088 53.582 77.5956L52.9512 77.2072C51.6829 76.4261 51.6829 74.5823 52.9512 73.8012L53.4638 73.4855C53.9921 73.1602 54.3335 72.607 54.427 71.9937C55.8059 62.9529 62.9497 55.808 71.99 54.4276C72.6032 54.334 73.1563 53.9926 73.4815 53.4644L73.7975 52.9512C74.5786 51.6829 76.4224 51.6829 77.2035 52.9512L77.5915 53.5813C77.9047 54.09 78.4303 54.4264 79.0178 54.5347C87.625 56.1217 94.3935 62.9572 95.8808 71.5989C95.9836 72.1963 96.3221 72.7325 96.8383 73.0504L98.0515 73.7975C99.3199 74.5786 99.3199 76.4224 98.0515 77.2035L96.7057 78.0323ZM77.186 104.186C77.186 105.291 76.2905 106.186 75.186 106.186C74.0814 106.186 73.186 105.291 73.186 104.186C73.186 103.081 74.0814 102.186 75.186 102.186C76.2905 102.186 77.186 103.081 77.186 104.186ZM75.186 47.186C76.2905 47.186 77.186 46.2905 77.186 45.186C77.186 44.0814 76.2905 43.186 75.186 43.186C74.0814 43.186 73.186 44.0814 73.186 45.186C73.186 46.2905 74.0814 47.186 75.186 47.186ZM107.186 75.186C107.186 76.2905 106.291 77.186 105.186 77.186C104.081 77.186 103.186 76.2905 103.186 75.186C103.186 74.0814 104.081 73.186 105.186 73.186C106.291 73.186 107.186 74.0814 107.186 75.186ZM45.186 77.186C46.2905 77.186 47.186 76.2905 47.186 75.186C47.186 74.0814 46.2905 73.186 45.186 73.186C44.0814 73.186 43.186 74.0814 43.186 75.186C43.186 76.2905 44.0814 77.186 45.186 77.186Z" fill="white"/>
<mask id="path-4-inside-1_2632_612" fill="white">
<path d="M97.0538 119.874C107.175 114.899 115.317 106.65 120.158 96.465C124.999 86.2799 126.255 74.7573 123.722 63.7683C121.189 52.7794 115.015 42.9695 106.204 35.9317C97.3921 28.894 86.4602 25.0416 75.1831 25.0003C63.9061 24.959 52.9462 28.7312 44.0833 35.7042C35.2204 42.6773 28.9751 52.4416 26.3614 63.4117C23.7478 74.3818 24.9193 85.9133 29.6859 96.1336C34.4524 106.354 42.5339 114.663 52.6181 119.711L52.9363 119.075C42.9954 114.099 35.0288 105.908 30.33 95.8332C25.6312 85.7582 24.4763 74.3906 27.0528 63.5765C29.6293 52.7623 35.7859 43.1367 44.5228 36.2628C53.2597 29.3889 64.0638 25.6704 75.1805 25.7111C86.2973 25.7518 97.0738 29.5494 105.76 36.4871C114.446 43.4248 120.532 53.0953 123.03 63.928C125.527 74.7607 124.289 86.1195 119.516 96.1598C114.744 106.2 106.717 114.332 96.7403 119.236L97.0538 119.874Z"/>
</mask>
<path d="M97.0538 119.874C107.175 114.899 115.317 106.65 120.158 96.465C124.999 86.2799 126.255 74.7573 123.722 63.7683C121.189 52.7794 115.015 42.9695 106.204 35.9317C97.3921 28.894 86.4602 25.0416 75.1831 25.0003C63.9061 24.959 52.9462 28.7312 44.0833 35.7042C35.2204 42.6773 28.9751 52.4416 26.3614 63.4117C23.7478 74.3818 24.9193 85.9133 29.6859 96.1336C34.4524 106.354 42.5339 114.663 52.6181 119.711L52.9363 119.075C42.9954 114.099 35.0288 105.908 30.33 95.8332C25.6312 85.7582 24.4763 74.3906 27.0528 63.5765C29.6293 52.7623 35.7859 43.1367 44.5228 36.2628C53.2597 29.3889 64.0638 25.6704 75.1805 25.7111C86.2973 25.7518 97.0738 29.5494 105.76 36.4871C114.446 43.4248 120.532 53.0953 123.03 63.928C125.527 74.7607 124.289 86.1195 119.516 96.1598C114.744 106.2 106.717 114.332 96.7403 119.236L97.0538 119.874Z" stroke="white" stroke-width="2" mask="url(#path-4-inside-1_2632_612)"/>
</mask>
<g mask="url(#mask0_2632_612)">
<circle cx="75" cy="75" r="70" stroke="white" stroke-width="10"/>
<path fill-rule="evenodd" clip-rule="evenodd" d="M45 119C44.4477 119 44 119.448 44 120L43 120C42.4477 120 42 120.448 42 121V122H41C40.4477 122 40 122.448 40 123V125C38.3431 125 37 126.343 37 128V137C37 138.657 38.3431 140 40 140H110C111.657 140 113 138.657 113 137V128C113 126.343 111.657 125 110 125V123C110 122.448 109.552 122 109 122H108V121C108 120.448 107.552 120 107 120H106C106 119.448 105.552 119 105 119H45ZM42 124.5C41.7239 124.5 41.5 124.724 41.5 125C41.5 125.276 41.7239 125.5 42 125.5L108 125.5C108.276 125.5 108.5 125.276 108.5 125C108.5 124.724 108.276 124.5 108 124.5L42 124.5ZM43.75 122C43.75 121.862 43.8619 121.75 44 121.75L106 121.75C106.138 121.75 106.25 121.862 106.25 122C106.25 122.138 106.138 122.25 106 122.25L44 122.25C43.8619 122.25 43.75 122.138 43.75 122ZM46 119.875C45.931 119.875 45.875 119.931 45.875 120C45.875 120.069 45.931 120.125 46 120.125L104 120.125C104.069 120.125 104.125 120.069 104.125 120C104.125 119.931 104.069 119.875 104 119.875L46 119.875Z" fill="white"/>
<path fill-rule="evenodd" clip-rule="evenodd" d="M73.483 36.9512C74.2641 35.6829 76.1078 35.6829 76.8889 36.9512L81.3299 44.1624C81.6154 44.626 82.0789 44.9501 82.6076 45.08C93.7665 47.8216 102.55 56.6054 105.292 67.7644C105.422 68.2931 105.746 68.7566 106.21 69.0421L113.421 73.483C114.689 74.2641 114.689 76.1078 113.421 76.8889L106.21 81.3299C105.746 81.6154 105.422 82.0789 105.292 82.6076C102.495 93.99 93.4123 102.901 81.9344 105.449C81.3871 105.571 80.9049 105.9 80.6109 106.377L76.8889 112.421C76.1079 113.689 74.2641 113.689 73.483 112.421L69.7611 106.377C69.4671 105.9 68.9848 105.571 68.4375 105.449C56.9596 102.901 47.8765 93.99 45.08 82.6076C44.9501 82.0789 44.626 81.6154 44.1624 81.3299L36.9512 76.8889C35.6829 76.1078 35.6829 74.2641 36.9512 73.483L44.1624 69.0421C44.626 68.7566 44.9501 68.2931 45.08 67.7644C47.8216 56.6054 56.6054 47.8216 67.7644 45.08C68.2931 44.9501 68.7566 44.626 69.0421 44.1624L73.483 36.9512ZM96.7057 78.0323C96.2093 78.338 95.8763 78.8464 95.7595 79.4176C94.0546 87.7503 87.4144 94.2855 79.0264 95.8356C78.4392 95.9441 77.914 96.2805 77.6009 96.7889L77.2043 97.4329C76.4232 98.7012 74.5794 98.7012 73.7983 97.4329L73.4741 96.9064C73.149 96.3784 72.5961 96.0371 71.9832 95.9433C63.1616 94.5934 56.1471 87.7542 54.5354 79.0215C54.427 78.4342 54.0906 77.9088 53.582 77.5956L52.9512 77.2072C51.6829 76.4261 51.6829 74.5823 52.9512 73.8012L53.4638 73.4855C53.9921 73.1602 54.3335 72.607 54.427 71.9937C55.8059 62.9529 62.9497 55.808 71.99 54.4276C72.6032 54.334 73.1563 53.9926 73.4815 53.4644L73.7975 52.9512C74.5786 51.6829 76.4224 51.6829 77.2035 52.9512L77.5915 53.5813C77.9048 54.09 78.4303 54.4264 79.0178 54.5347C87.625 56.1217 94.3935 62.9572 95.8808 71.5989C95.9836 72.1963 96.3221 72.7325 96.8383 73.0504L98.0515 73.7975C99.3199 74.5786 99.3199 76.4224 98.0515 77.2035L96.7057 78.0323ZM77.186 104.186C77.186 105.291 76.2905 106.186 75.186 106.186C74.0814 106.186 73.186 105.291 73.186 104.186C73.186 103.081 74.0814 102.186 75.186 102.186C76.2905 102.186 77.186 103.081 77.186 104.186ZM75.186 47.186C76.2905 47.186 77.186 46.2905 77.186 45.186C77.186 44.0814 76.2905 43.186 75.186 43.186C74.0814 43.186 73.186 44.0814 73.186 45.186C73.186 46.2905 74.0814 47.186 75.186 47.186ZM107.186 75.186C107.186 76.2905 106.291 77.186 105.186 77.186C104.081 77.186 103.186 76.2905 103.186 75.186C103.186 74.0814 104.081 73.186 105.186 73.186C106.291 73.186 107.186 74.0814 107.186 75.186ZM45.186 77.186C46.2905 77.186 47.186 76.2905 47.186 75.186C47.186 74.0814 46.2905 73.186 45.186 73.186C44.0814 73.186 43.186 74.0814 43.186 75.186C43.186 76.2905 44.0814 77.186 45.186 77.186Z" fill="white"/>
<mask id="path-8-inside-2_2632_612" fill="white">
<path d="M97.0538 119.874C107.175 114.899 115.317 106.65 120.158 96.465C124.999 86.2799 126.255 74.7573 123.722 63.7683C121.189 52.7794 115.015 42.9695 106.204 35.9317C97.3921 28.894 86.4602 25.0416 75.1831 25.0003C63.9061 24.959 52.9462 28.7312 44.0833 35.7042C35.2204 42.6773 28.9751 52.4416 26.3614 63.4117C23.7478 74.3818 24.9193 85.9133 29.6859 96.1336C34.4524 106.354 42.5339 114.663 52.6181 119.711L52.9363 119.075C42.9954 114.099 35.0288 105.908 30.33 95.8332C25.6312 85.7582 24.4763 74.3906 27.0528 63.5765C29.6293 52.7623 35.7859 43.1367 44.5228 36.2628C53.2597 29.3889 64.0638 25.6704 75.1805 25.7111C86.2973 25.7518 97.0738 29.5494 105.76 36.4871C114.446 43.4248 120.532 53.0953 123.03 63.928C125.527 74.7607 124.289 86.1195 119.516 96.1598C114.744 106.2 106.717 114.332 96.7403 119.236L97.0538 119.874Z"/>
</mask>
<path d="M97.0538 119.874C107.175 114.899 115.317 106.65 120.158 96.465C124.999 86.2799 126.255 74.7573 123.722 63.7683C121.189 52.7794 115.015 42.9695 106.204 35.9317C97.3921 28.894 86.4602 25.0416 75.1831 25.0003C63.9061 24.959 52.9462 28.7312 44.0833 35.7042C35.2204 42.6773 28.9751 52.4416 26.3614 63.4117C23.7478 74.3818 24.9193 85.9133 29.6859 96.1336C34.4524 106.354 42.5339 114.663 52.6181 119.711L52.9363 119.075C42.9954 114.099 35.0288 105.908 30.33 95.8332C25.6312 85.7582 24.4763 74.3906 27.0528 63.5765C29.6293 52.7623 35.7859 43.1367 44.5228 36.2628C53.2597 29.3889 64.0638 25.6704 75.1805 25.7111C86.2973 25.7518 97.0738 29.5494 105.76 36.4871C114.446 43.4248 120.532 53.0953 123.03 63.928C125.527 74.7607 124.289 86.1195 119.516 96.1598C114.744 106.2 106.717 114.332 96.7403 119.236L97.0538 119.874Z" stroke="white" stroke-width="2" mask="url(#path-8-inside-2_2632_612)"/>
</g>
</svg>
